<svg width="18.755554" height="18.754395" viewBox="0 0 18.7556 18.7544" fill="none" xmlns="http://www.w3.org/2000/svg" xmlns:xlink="http://www.w3.org/1999/xlink">
	<desc>
			Created with Pixso.
	</desc>
	<defs/>
	<path id="Vector" d="M9.24396 18.7544C8.74097 18.7538 8.25833 18.5555 7.90021 18.2023L1.22311 11.5148C1.05179 11.3444 0.945007 11.1198 0.921051 10.8794L0.00436401 1.13977C-0.00964355 0.987244 0.0101318 0.833435 0.0623474 0.689392C0.114563 0.545349 0.197937 0.414612 0.306458 0.306458C0.414612 0.197937 0.545349 0.114563 0.689392 0.0623779C0.833435 0.0101318 0.987213 -0.00964355 1.1398 0.00439453L10.8794 0.921021C11.1198 0.945007 11.3444 1.05176 11.5148 1.22314L18.2023 7.90021C18.5566 8.25555 18.7556 8.73694 18.7556 9.23877C18.7556 9.7406 18.5566 10.2219 18.2023 10.5773L10.5773 18.2023C10.223 18.5549 9.7438 18.7533 9.24396 18.7544ZM2.99396 10.3065L9.24396 16.5565L16.5877 9.21271L10.3377 2.96271L2.2023 2.20227L2.99396 10.3065Z" fill="#FFC700" fill-opacity="1.000000" fill-rule="nonzero"/>
</svg>
