<svg width="16.669807" height="22.916748" viewBox="0 0 16.6698 22.9167" fill="none" xmlns="http://www.w3.org/2000/svg" xmlns:xlink="http://www.w3.org/1999/xlink">
	<desc>
			Created with Pixso.
	</desc>
	<defs/>
	<path id="Vector" d="M7.40782 22.9167C7.28703 22.9166 7.16719 22.8954 7.05365 22.8542C6.83464 22.774 6.64887 22.6227 6.52611 22.4244C6.40335 22.2261 6.35069 21.9923 6.37657 21.7605L7.17865 14.3751L1.04324 14.3751C0.853996 14.3754 0.668259 14.3241 0.505959 14.2268C0.343666 14.1295 0.210945 13.9898 0.122063 13.8227C0.0331726 13.6556 -0.00852203 13.4675 0.00144958 13.2786C0.0114212 13.0896 0.0726776 12.9069 0.178658 12.7501L8.3974 0.458435C8.52739 0.266052 8.71791 0.122681 8.93871 0.0509644C9.15952 -0.020752 9.39795 -0.0166626 9.61615 0.0626221C9.82592 0.140503 10.005 0.283813 10.127 0.471436C10.2489 0.659058 10.3072 0.88092 10.2932 1.10425L9.49115 8.54175L15.6266 8.54175C15.8158 8.5415 16.0015 8.59277 16.1638 8.69006C16.3261 8.78741 16.4589 8.92706 16.5477 9.09418C16.6366 9.26123 16.6783 9.44934 16.6684 9.63831C16.6584 9.82727 16.5971 10.01 16.4911 10.1667L8.2724 22.4584C8.17685 22.5998 8.04803 22.7155 7.89729 22.7955C7.74653 22.8754 7.57845 22.9171 7.40782 22.9167ZM2.99116 12.2917L8.3349 12.2917C8.48026 12.2921 8.62394 12.3229 8.7567 12.3821C8.88945 12.4413 9.00835 12.5276 9.10574 12.6355C9.20404 12.7449 9.27806 12.8738 9.32295 13.0139C9.36784 13.1539 9.38255 13.3019 9.36615 13.448L8.8974 17.7709L13.6786 10.6251L8.3349 10.6251C8.18791 10.626 8.04239 10.5958 7.90791 10.5364C7.77344 10.4771 7.65305 10.3899 7.55466 10.2807C7.45627 10.1714 7.38211 10.0427 7.33705 9.90277C7.292 9.76282 7.27706 9.61493 7.29324 9.46887L7.76199 5.14594L2.99116 12.2917Z" fill="#149211" fill-opacity="1.000000" fill-rule="nonzero"/>
</svg>
